<svg width="17" height="16" viewBox="0 0 17 16" fill="none" xmlns="http://www.w3.org/2000/svg">
    <path d="M0.927605 8.33393C1.10456 12.5894 4.61208 16 8.91064 16C13.2092 16 16.7167 12.5894 16.8937 8.33393C16.9033 8.30737 16.9106 8.27985 16.9106 8.25009C16.9106 8.23217 16.9042 8.21648 16.9007 8.20016C16.9023 8.13328 16.9106 8.06768 16.9106 8.00016C16.9106 3.58919 13.3215 0 8.91064 0C4.49976 0 0.910645 3.58919 0.910645 8.00016C0.910645 8.06768 0.919285 8.13328 0.920565 8.20016C0.917045 8.2168 0.910645 8.23217 0.910645 8.25009C0.910645 8.28017 0.918005 8.30769 0.927605 8.33393ZM13.3711 11.3708C12.7116 11.0946 12.0038 10.8812 11.2636 10.7353C11.3426 10.0088 11.389 9.25426 11.4038 8.50033H13.8937C13.8482 9.52723 13.6658 10.4969 13.3711 11.3708ZM14.3932 8.50001H16.3852C16.2921 9.90292 15.8162 11.2015 15.0537 12.2895C14.6742 12.023 14.2652 11.7801 13.8252 11.5695C14.1478 10.6351 14.3462 9.59795 14.3932 8.50001ZM7.10521 11.1429C7.69432 11.0508 8.2988 10.9999 8.91064 10.9999C9.52248 10.9999 10.1273 11.0508 10.7158 11.1429C10.3689 13.8105 9.6108 15.5002 8.91064 15.5002C8.21048 15.5002 7.45272 13.8105 7.10521 11.1429ZM7.86456 15.3321C6.4892 14.8912 5.32569 13.5968 4.6236 11.8399C5.24664 11.5775 5.91672 11.3724 6.61848 11.2313C6.84792 12.9791 7.26745 14.5027 7.86456 15.3321ZM7.0476 5.35435C7.65624 5.44843 8.28024 5.49995 8.91064 5.49995C9.54105 5.49995 10.165 5.44843 10.7737 5.35435C10.8598 6.16428 10.9106 7.04846 10.9106 7.99984H6.91065C6.91065 7.04846 6.96152 6.16428 7.0476 5.35435ZM10.9033 8.50001C10.8892 9.26259 10.8444 9.98068 10.7734 10.6457C10.1654 10.5516 9.54201 10.5001 8.91096 10.5001C8.27993 10.5001 7.65656 10.5516 7.04792 10.6457C6.96152 9.83252 6.92952 9.11698 6.918 8.50001H10.9033ZM11.2031 11.2313C11.9052 11.3724 12.5746 11.5772 13.198 11.8399C12.4959 13.5964 11.3324 14.8909 9.95704 15.3321C10.5535 14.5027 10.973 12.9791 11.2031 11.2313ZM11.4108 7.99984C11.4108 7.08174 11.3599 6.1518 11.2639 5.26475C12.0041 5.11882 12.7119 4.90474 13.3714 4.62921C13.7135 5.64363 13.911 6.7867 13.911 7.99984H11.4108ZM11.2031 4.76842C10.973 3.02022 10.5542 1.49699 9.95672 0.667853C11.3321 1.10882 12.4956 2.40325 13.1977 4.15976C12.5746 4.42217 11.9052 4.62793 11.2031 4.76842ZM10.7161 4.85674C10.127 4.94858 9.52248 4.99978 8.91064 4.99978C8.2988 4.99978 7.69401 4.9489 7.10521 4.85674C7.45272 2.18916 8.2108 0.49953 8.91064 0.49953C9.61049 0.49953 10.3686 2.18916 10.7161 4.85674ZM6.61817 4.76842C5.91608 4.62729 5.24664 4.42249 4.62328 4.15976C5.32537 2.40325 6.48888 1.10882 7.86424 0.667853C7.26777 1.49731 6.84824 3.02054 6.61817 4.76842ZM6.55768 5.26475C6.46168 6.1518 6.41081 7.08174 6.41081 7.99984H3.91064C3.91064 6.7867 4.10808 5.64363 4.45016 4.62889C5.10968 4.90474 5.81752 5.11818 6.55768 5.26475ZM6.41752 8.50001C6.43192 9.25395 6.47864 10.0085 6.55768 10.7356C5.81752 10.8815 5.10968 11.0956 4.45016 11.3711C4.15576 10.4972 3.97304 9.52755 3.9276 8.50001H6.41752ZM3.99576 11.5695C3.55576 11.7804 3.14712 12.023 2.7676 12.2895C2.00504 11.2015 1.5292 9.90356 1.43608 8.50001H3.42808C3.47512 9.59795 3.67384 10.6351 3.99576 11.5695ZM3.06712 12.6899C3.40952 12.4505 3.7756 12.2287 4.17048 12.0374C4.67256 13.2799 5.39512 14.3113 6.26361 15.0089C5.00057 14.5299 3.89912 13.7248 3.06712 12.6899ZM11.5577 15.0086C12.4268 14.3116 13.1487 13.2796 13.6508 12.037C14.0457 12.229 14.4118 12.4502 14.7542 12.6895C13.9222 13.7251 12.8207 14.5302 11.5577 15.0086ZM14.4108 7.99984C14.4108 6.71629 14.1967 5.50635 13.8258 4.43017C14.2658 4.21928 14.6748 3.97672 15.0543 3.71015C15.9065 4.92714 16.4108 6.40461 16.4108 7.99984H14.4108ZM14.7545 3.30983C14.4121 3.54919 14.046 3.77032 13.6511 3.96232C13.149 2.71973 12.4265 1.68771 11.558 0.99074C12.8204 1.46979 13.9218 2.27493 14.7545 3.30983ZM6.26361 0.99106C5.39448 1.68803 4.67256 2.72005 4.17048 3.96264C3.77496 3.77064 3.40952 3.54919 3.06712 3.30951C3.89912 2.27461 5.00057 1.46947 6.26361 0.99106ZM2.7676 3.71015C3.14648 3.97672 3.55576 4.21928 3.99576 4.43017C3.62488 5.50635 3.4108 6.71629 3.4108 7.99984H1.4108C1.4108 6.40493 1.91512 4.92714 2.7676 3.71015Z" fill="black"/>
</svg>
